<svg version="1.1" xmlns="http://www.w3.org/2000/svg" viewBox="-10 170 740 740">
  <path d="&#xA;M497.263245,645.017456 &#xA;&#x9;C493.312744,665.212708 482.775238,682.173523 474.108063,699.933533 &#xA;&#x9;C468.982422,710.436584 464.601379,721.216553 463.150726,732.942749 &#xA;&#x9;C462.655518,736.945740 460.091064,737.416870 456.730316,737.327881 &#xA;&#x9;C431.268280,736.653137 405.788177,735.286438 380.346710,735.792969 &#xA;&#x9;C367.686249,736.045044 358.126617,731.763428 348.698273,724.332275 &#xA;&#x9;C338.378906,716.198975 327.503998,708.747559 316.630157,701.353455 &#xA;&#x9;C312.923706,698.833130 311.254517,695.812744 310.956177,691.565491 &#xA;&#x9;C309.919006,676.799622 308.825623,662.037537 307.701691,647.277954 &#xA;&#x9;C306.818237,635.676147 305.970245,624.069580 304.885071,612.485901 &#xA;&#x9;C304.336090,606.625977 305.055542,601.879517 309.649597,597.182495 &#xA;&#x9;C326.178314,580.283142 342.171692,562.858887 358.280975,545.552551 &#xA;&#x9;C360.084717,543.614746 361.760071,542.934937 364.384094,543.556274 &#xA;&#x9;C388.654480,549.303101 413.005554,554.722534 437.192963,560.795593 &#xA;&#x9;C442.354980,562.091614 446.933289,565.681763 451.806641,568.163635 &#xA;&#x9;C468.272797,576.549500 484.710632,584.993042 501.264130,593.203186 &#xA;&#x9;C503.962067,594.541199 504.403442,596.255249 504.105225,598.761536 &#xA;&#x9;C502.279388,614.106934 500.882507,629.515442 497.263245,645.017456 &#xA;z" fill="none" stroke="#FFFFFF" stroke-width="24" stroke-linejoin="round" stroke-linecap="round"></path>
  <path d="&#xA;M328.762482,286.635284 &#xA;&#x9;C346.792511,284.706146 364.387726,284.526337 382.043427,285.390289 &#xA;&#x9;C399.563934,286.247589 416.832977,288.351440 433.549255,293.850220 &#xA;&#x9;C437.964508,295.302612 442.658478,296.621216 446.422546,299.180603 &#xA;&#x9;C452.843018,303.546265 459.239868,303.192657 466.246643,301.598175 &#xA;&#x9;C477.591125,299.016632 477.608429,299.207550 480.553101,310.492523 &#xA;&#x9;C487.307800,336.378387 494.033112,362.272247 500.925964,388.121338 &#xA;&#x9;C501.850586,391.588867 501.477112,393.926636 498.615051,396.387146 &#xA;&#x9;C479.553925,412.773926 460.615387,429.303741 441.696106,445.854614 &#xA;&#x9;C439.141235,448.089630 436.165192,448.891815 433.005188,449.148285 &#xA;&#x9;C410.963104,450.937225 388.846710,452.077271 366.904114,454.686462 &#xA;&#x9;C358.831116,455.646423 354.441254,452.819733 349.599670,447.404877 &#xA;&#x9;C334.284241,430.276215 318.600952,413.475037 302.949432,396.649933 &#xA;&#x9;C300.623016,394.149048 299.610870,391.605713 299.673706,388.185608 &#xA;&#x9;C300.193909,359.885040 300.160461,331.567200 301.163055,303.285431 &#xA;&#x9;C301.685303,288.553680 299.083771,291.851929 313.509460,288.715759 &#xA;&#x9;C318.361725,287.660889 323.369446,287.320953 328.762482,286.635284 &#xA;z" fill="none" stroke="#FFFFFF" stroke-width="24" stroke-linejoin="round" stroke-linecap="round"></path>
  <path d="&#xA;M221.084381,445.124512 &#xA;&#x9;C224.697250,439.692566 228.298325,434.671844 231.450684,429.383636 &#xA;&#x9;C233.956161,425.180634 237.304153,422.464813 241.781219,420.500519 &#xA;&#x9;C258.097809,413.341797 274.334381,405.994476 290.486725,398.472565 &#xA;&#x9;C293.907867,396.879425 296.136475,397.049957 298.706421,399.908203 &#xA;&#x9;C316.079926,419.230438 333.573364,438.444824 351.041687,457.681732 &#xA;&#x9;C352.900818,459.729095 354.021851,462.026001 354.178223,464.834229 &#xA;&#x9;C355.195496,483.102936 356.254761,501.369263 357.291687,519.636841 &#xA;&#x9;C357.367188,520.967041 357.079163,522.393372 357.461517,523.618530 &#xA;&#x9;C360.309998,532.744934 355.919464,538.812744 349.743958,544.965759 &#xA;&#x9;C333.343109,561.306702 317.379059,578.088074 301.360413,594.808350 &#xA;&#x9;C298.926178,597.349182 296.668274,598.065613 293.065765,597.634277 &#xA;&#x9;C270.942474,594.985718 248.781769,592.636841 226.611481,590.407227 &#xA;&#x9;C223.191254,590.063293 221.243134,588.912964 221.041000,585.492737 &#xA;&#x9;C220.446472,575.432800 216.035553,566.580750 212.227737,557.554443 &#xA;&#x9;C205.371613,541.302063 203.086487,524.328064 203.489548,506.807556 &#xA;&#x9;C203.757751,495.148926 204.563705,483.545624 205.570053,471.937378 &#xA;&#x9;C205.812790,469.137177 206.613754,466.803192 208.130508,464.548798 &#xA;&#x9;C212.407761,458.191315 216.633148,451.798950 221.084381,445.124512 &#xA;z" fill="none" stroke="#FFFFFF" stroke-width="24" stroke-linejoin="round" stroke-linecap="round"></path>
  <path d="&#xA;M173.717957,480.877869 &#xA;&#x9;C150.184967,491.300354 126.990860,489.451599 103.870117,480.876984 &#xA;&#x9;C92.387756,476.618591 82.028137,470.270752 72.163063,463.074493 &#xA;&#x9;C68.531944,460.425720 66.938705,456.959351 66.634872,452.456116 &#xA;&#x9;C64.820915,425.570801 62.813938,398.698578 60.920940,371.818481 &#xA;&#x9;C60.395020,364.350525 60.173023,356.859131 59.536072,349.402008 &#xA;&#x9;C59.265556,346.234955 60.471046,344.939209 63.387501,344.209686 &#xA;&#x9;C93.713928,336.623962 123.324593,336.862152 151.831451,351.560699 &#xA;&#x9;C163.259064,357.452972 174.418198,363.795044 184.723572,371.439056 &#xA;&#x9;C191.890671,376.755188 198.677094,376.785553 206.021744,372.403290 &#xA;&#x9;C211.070023,369.391174 215.459259,365.581268 219.705994,361.573486 &#xA;&#x9;C220.892700,360.453552 222.099182,359.354584 223.199005,358.336365 &#xA;&#x9;C225.389969,359.148499 225.080124,360.829895 225.187576,362.230865 &#xA;&#x9;C226.548111,379.969604 227.827042,397.714752 229.244980,415.448822 &#xA;&#x9;C229.552307,419.292633 228.733429,422.490845 226.347275,425.644562 &#xA;&#x9;C218.006790,436.667755 210.113113,448.032593 201.653671,458.961090 &#xA;&#x9;C194.314850,468.442017 184.635559,475.208862 173.717957,480.877869 &#xA;z" fill="none" stroke="#FFFFFF" stroke-width="24" stroke-linejoin="round" stroke-linecap="round"></path>
  <path d="&#xA;M523.138306,506.096283 &#xA;&#x9;C523.232666,525.245972 520.574585,543.361328 512.846069,560.565735 &#xA;&#x9;C509.373291,568.296387 506.074432,576.118469 505.208710,584.736450 &#xA;&#x9;C504.786224,588.942383 501.985321,587.623901 499.677765,586.464172 &#xA;&#x9;C488.816132,581.005249 477.978973,575.497375 467.146362,569.980835 &#xA;&#x9;C461.507080,567.109070 455.965363,564.034546 450.244171,561.338928 &#xA;&#x9;C446.959015,559.791077 445.656616,557.688171 445.627380,553.992981 &#xA;&#x9;C445.420776,527.846008 445.044556,501.700073 444.643555,475.555054 &#xA;&#x9;C444.544037,469.065002 444.223053,462.575684 443.868103,456.093475 &#xA;&#x9;C443.709076,453.189117 444.648529,451.068695 446.896545,449.150177 &#xA;&#x9;C465.518738,433.257507 484.107178,417.324493 502.592987,401.273712 &#xA;&#x9;C505.439911,398.801758 508.157593,398.443176 511.724518,399.187225 &#xA;&#x9;C530.605164,403.125671 549.476257,407.168610 568.477600,410.438110 &#xA;&#x9;C575.169617,411.589569 579.502563,415.574524 584.101379,419.514771 &#xA;&#x9;C602.441040,435.228180 620.662415,451.079712 638.910339,466.899963 &#xA;&#x9;C640.015564,467.858124 641.402161,468.637695 641.751770,470.519806 &#xA;&#x9;C641.440918,470.904266 641.140625,471.569031 640.627258,471.868347 &#xA;&#x9;C614.782593,486.938843 587.687988,493.151093 558.391174,483.270874 &#xA;&#x9;C549.410583,480.242218 541.755981,474.958954 534.589905,468.894379 &#xA;&#x9;C533.572876,468.033691 532.600098,467.094696 531.486328,466.379517 &#xA;&#x9;C528.842957,464.682068 526.060425,462.452332 522.804565,464.217987 &#xA;&#x9;C519.253479,466.143738 520.596741,469.628723 520.835999,472.753784 &#xA;&#x9;C521.674255,483.701233 522.376892,494.659027 523.138306,506.096283 &#xA;z" fill="none" stroke="#FFFFFF" stroke-width="24" stroke-linejoin="round" stroke-linecap="round"></path>
  <path d="&#xA;M378.198853,827.028198 &#xA;&#x9;C378.852203,830.342590 379.435699,833.244019 380.038940,836.243652 &#xA;&#x9;C379.131134,836.672913 378.558472,837.179565 377.985168,837.180359 &#xA;&#x9;C364.507782,837.198059 350.986176,838.365540 337.582642,836.146118 &#xA;&#x9;C327.227448,834.431335 317.910065,829.919373 311.207764,822.009521 &#xA;&#x9;C305.231812,814.956909 298.169525,812.571045 289.524048,812.292542 &#xA;&#x9;C284.368286,812.126404 279.293762,810.899963 274.483063,808.934021 &#xA;&#x9;C262.157257,803.897034 256.343353,792.834839 258.030426,779.655579 &#xA;&#x9;C259.631775,767.146423 264.201752,755.207275 263.947723,742.299927 &#xA;&#x9;C263.678101,728.597900 259.771118,716.052612 254.140259,703.909180 &#xA;&#x9;C249.939301,694.849365 245.113602,686.080261 240.617691,677.155701 &#xA;&#x9;C239.459564,674.856689 237.743698,672.724731 237.795807,669.588074 &#xA;&#x9;C241.546402,669.657959 244.235382,671.822388 247.098846,673.217712 &#xA;&#x9;C264.468658,681.681580 281.707764,690.413574 299.075836,698.881104 &#xA;&#x9;C311.941956,705.153931 322.330627,714.960388 333.995361,722.942139 &#xA;&#x9;C341.004303,727.738037 347.597748,733.142334 354.619293,737.918335 &#xA;&#x9;C358.116791,740.297180 359.510010,743.387756 360.370941,747.289551 &#xA;&#x9;C366.209290,773.749268 372.192596,800.177063 378.198853,827.028198 &#xA;z" fill="none" stroke="#FFFFFF" stroke-width="24" stroke-linejoin="round" stroke-linecap="round"></path>
  <path d="&#xA;M702.494995,405.280304 &#xA;&#x9;C696.888550,423.559875 684.883423,436.853760 671.416199,448.999847 &#xA;&#x9;C665.493591,454.341339 658.973999,459.015869 652.835876,464.125763 &#xA;&#x9;C650.395142,466.157654 648.477356,466.351288 645.897644,464.179749 &#xA;&#x9;C624.369812,446.058319 602.744934,428.052155 581.160950,409.997406 &#xA;&#x9;C579.331299,408.466949 577.848633,406.741638 578.079529,404.069214 &#xA;&#x9;C579.313965,389.780548 578.111389,375.429474 579.063965,361.142639 &#xA;&#x9;C580.018311,346.828827 577.140808,349.377808 591.296692,344.672455 &#xA;&#x9;C621.109802,334.762817 650.576355,337.977753 678.934143,350.071503 &#xA;&#x9;C702.460938,360.104980 709.706482,378.312927 702.494995,405.280304 &#xA;z" fill="none" stroke="#FFFFFF" stroke-width="24" stroke-linejoin="round" stroke-linecap="round"></path>
  <path d="&#xA;M420.129028,551.126892 &#xA;&#x9;C403.058319,547.115540 386.418121,543.079529 369.705750,539.368530 &#xA;&#x9;C365.459198,538.425476 363.716095,536.784180 363.540222,532.150146 &#xA;&#x9;C362.707550,510.210419 360.397614,488.341187 360.557922,466.342133 &#xA;&#x9;C360.588470,462.152679 361.767242,460.292847 365.978058,459.973267 &#xA;&#x9;C388.365845,458.274231 410.745880,456.471100 433.123199,454.638367 &#xA;&#x9;C436.471863,454.364105 438.304382,454.905029 438.375336,459.016510 &#xA;&#x9;C438.892181,488.980164 439.644165,518.939697 440.278015,548.901489 &#xA;&#x9;C440.319275,550.852051 440.730988,552.914551 439.234070,555.114746 &#xA;&#x9;C432.964020,554.621887 426.858734,552.323425 420.129028,551.126892 &#xA;z" fill="none" stroke="#FFFFFF" stroke-width="24" stroke-linejoin="round" stroke-linecap="round"></path>
  <path d="&#xA;M228.714752,315.016968 &#xA;&#x9;C228.599518,307.794586 226.809433,301.085205 227.975220,293.861664 &#xA;&#x9;C236.556076,295.947235 244.985306,297.699310 253.234787,300.075409 &#xA;&#x9;C263.741638,303.101654 273.820435,304.498474 283.486359,297.440399 &#xA;&#x9;C285.929779,295.656189 289.129364,294.624817 292.352386,294.390076 &#xA;&#x9;C294.311096,295.867554 293.929474,298.006653 293.940094,299.920288 &#xA;&#x9;C294.096527,328.054474 294.188324,356.189026 294.341156,384.323242 &#xA;&#x9;C294.354797,386.832794 293.925659,388.789551 291.332977,389.990631 &#xA;&#x9;C274.120972,397.964203 256.953583,406.034180 239.756668,414.040497 &#xA;&#x9;C239.034302,414.376770 238.163040,414.393188 236.388733,414.759247 &#xA;&#x9;C233.821915,381.495880 231.274887,348.488831 228.714752,315.016968 &#xA;z" fill="none" stroke="#FFFFFF" stroke-width="24" stroke-linejoin="round" stroke-linecap="round"></path>
  <path d="&#xA;M262.296509,674.747314 &#xA;&#x9;C253.756119,670.516113 245.587738,666.369263 237.308868,662.456116 &#xA;&#x9;C234.497589,661.127319 232.894806,659.197632 232.060928,656.274292 &#xA;&#x9;C226.839249,637.968262 224.319946,619.219299 222.541214,600.323730 &#xA;&#x9;C222.157852,596.251221 223.763000,595.338928 227.315216,595.746460 &#xA;&#x9;C246.307327,597.925659 265.305328,600.053589 284.301239,602.199951 &#xA;&#x9;C287.934753,602.610474 291.561737,603.094666 295.203186,603.414185 &#xA;&#x9;C298.098419,603.668274 299.113800,605.253235 299.308441,608.002808 &#xA;&#x9;C300.940674,631.058350 302.579041,654.114014 304.388184,677.156128 &#xA;&#x9;C304.850769,683.047913 305.784882,688.895569 305.108337,695.859253 &#xA;&#x9;C290.537628,688.678650 276.581451,681.800903 262.296509,674.747314 &#xA;z" fill="none" stroke="#FFFFFF" stroke-width="24" stroke-linejoin="round" stroke-linecap="round"></path>
  <path d="&#xA;M371.990845,774.776062 &#xA;&#x9;C369.511078,763.549194 367.141113,752.727478 364.512482,740.724487 &#xA;&#x9;C395.974609,741.477661 426.559631,742.209778 456.942108,742.937073 &#xA;&#x9;C457.808197,745.626404 456.512665,747.158813 455.780640,748.757263 &#xA;&#x9;C446.567383,768.875488 437.229340,788.936829 428.095734,809.090881 &#xA;&#x9;C426.113251,813.465332 421.913666,815.431091 418.880676,818.636658 &#xA;&#x9;C411.363831,826.581177 402.685150,832.830444 391.730438,835.553223 &#xA;&#x9;C387.266235,836.662781 385.486603,835.701416 384.518921,831.135132 &#xA;&#x9;C380.558289,812.445923 376.268982,793.826416 371.990845,774.776062 &#xA;z" fill="none" stroke="#FFFFFF" stroke-width="24" stroke-linejoin="round" stroke-linecap="round"></path>
  <path d="&#xA;M160.556396,310.451965 &#xA;&#x9;C154.873550,305.106415 149.538132,299.922424 145.097015,294.051056 &#xA;&#x9;C146.274429,291.801514 148.109268,292.077057 149.652222,291.988037 &#xA;&#x9;C169.225311,290.858887 188.801010,289.773895 208.378723,288.727844 &#xA;&#x9;C210.687195,288.604492 212.980499,288.645294 215.290268,289.321533 &#xA;&#x9;C218.423111,290.238708 219.971924,292.037018 220.205734,295.325653 &#xA;&#x9;C221.430069,312.547974 222.751328,329.763336 224.028534,346.981903 &#xA;&#x9;C224.101532,347.966156 224.132812,348.970612 222.692917,350.384033 &#xA;&#x9;C200.394272,340.038574 179.382248,327.323120 160.556396,310.451965 &#xA;z" fill="none" stroke="#FFFFFF" stroke-width="24" stroke-linejoin="round" stroke-linecap="round"></path>
  <path d="&#xA;M510.292175,298.620148 &#xA;&#x9;C531.409302,299.321960 552.061462,299.878723 572.855530,302.475708 &#xA;&#x9;C552.085876,324.787079 526.792542,339.784790 498.864471,352.790253 &#xA;&#x9;C494.145172,334.192322 489.613770,316.334778 484.940308,297.917358 &#xA;&#x9;C493.978821,297.414459 501.902924,297.738586 510.292175,298.620148 &#xA;z" fill="none" stroke="#FFFFFF" stroke-width="24" stroke-linejoin="round" stroke-linecap="round"></path>
  <path d="&#xA;M57.266953,396.020325 &#xA;&#x9;C58.584190,415.036499 59.890511,433.584595 61.173546,451.802002 &#xA;&#x9;C59.971581,452.850311 59.158974,452.517151 58.539200,451.981995 &#xA;&#x9;C44.159222,439.565460 31.178732,426.080383 24.644287,407.652435 &#xA;&#x9;C21.338842,398.330688 20.660984,388.630859 22.026632,379.051819 &#xA;&#x9;C23.598219,368.028229 30.352200,359.986969 39.707542,354.197876 &#xA;&#x9;C43.784363,351.675110 47.917049,349.163116 53.725700,347.846832 &#xA;&#x9;C54.918236,363.961548 56.087132,379.756897 57.266953,396.020325 &#xA;z" fill="none" stroke="#FFFFFF" stroke-width="24" stroke-linejoin="round" stroke-linecap="round"></path>
  <path d="&#xA;M596.771973,268.559082 &#xA;&#x9;C592.937378,277.720398 588.006287,285.771881 582.087646,293.251556 &#xA;&#x9;C580.655945,295.060913 579.165161,296.306976 576.698730,296.189850 &#xA;&#x9;C553.788269,295.101898 530.875671,294.059235 507.965027,292.975861 &#xA;&#x9;C507.360626,292.947266 506.771057,292.606201 506.000946,292.353973 &#xA;&#x9;C506.407440,290.227692 508.221161,290.305237 509.419434,289.890045 &#xA;&#x9;C535.185059,280.962616 558.815247,268.472931 578.367737,249.045883 &#xA;&#x9;C580.850647,246.578857 583.879211,244.765991 587.129944,243.390045 &#xA;&#x9;C590.618347,241.913544 594.280090,240.856277 597.544800,243.447495 &#xA;&#x9;C600.992249,246.183701 601.516785,250.253052 600.946594,254.350937 &#xA;&#x9;C600.279907,259.142822 598.654419,263.699554 596.771973,268.559082 &#xA;z" fill="none" stroke="#FFFFFF" stroke-width="24" stroke-linejoin="round" stroke-linecap="round"></path>
  <path d="&#xA;M572.982666,400.665833 &#xA;&#x9;C572.928955,404.705109 571.375427,405.568054 567.846558,404.731323 &#xA;&#x9;C549.592102,400.402893 531.288879,396.279816 512.995056,392.118439 &#xA;&#x9;C509.990814,391.434998 508.243225,390.063812 507.492096,386.695770 &#xA;&#x9;C505.468903,377.623657 502.892822,368.675629 500.615387,359.658386 &#xA;&#x9;C500.321442,358.494598 499.227814,357.244080 500.501312,355.940948 &#xA;&#x9;C502.492493,356.030792 503.071564,357.887329 504.186432,358.997803 &#xA;&#x9;C508.790985,363.584473 513.505127,368.014832 518.992310,371.567108 &#xA;&#x9;C527.569031,377.119354 532.958923,377.049561 541.418030,371.248169 &#xA;&#x9;C550.064087,365.318573 558.850342,359.609253 568.171753,354.776062 &#xA;&#x9;C569.610962,354.029785 570.939026,352.878784 573.006042,353.244171 &#xA;&#x9;C573.006042,368.885101 573.006042,384.546783 572.982666,400.665833 &#xA;z" fill="none" stroke="#FFFFFF" stroke-width="24" stroke-linejoin="round" stroke-linecap="round"></path>
  <path d="&#xA;M137.507324,283.604248 &#xA;&#x9;C131.748734,274.140381 126.712425,264.743317 125.618896,253.890686 &#xA;&#x9;C124.564713,243.428574 130.582779,239.357895 140.134979,243.844437 &#xA;&#x9;C143.312958,245.337097 146.188370,247.345505 148.683548,249.825729 &#xA;&#x9;C161.696777,262.761078 176.885239,272.493317 193.369873,280.347778 &#xA;&#x9;C194.750763,281.005737 196.691437,281.079254 197.275345,283.804382 &#xA;&#x9;C190.800140,284.279907 184.463821,284.811615 178.118607,285.196564 &#xA;&#x9;C166.842331,285.880646 155.556259,286.408966 144.284241,287.153290 &#xA;&#x9;C141.322510,287.348846 139.021637,286.806763 137.507324,283.604248 &#xA;z" fill="none" stroke="#FFFFFF" stroke-width="24" stroke-linejoin="round" stroke-linecap="round"></path>
  <path d="&#xA;M442.309570,811.468262 &#xA;&#x9;C439.167145,812.251099 436.434601,812.854431 432.805542,811.777161 &#xA;&#x9;C442.316559,791.603394 451.722656,771.652100 461.128754,751.700806 &#xA;&#x9;C461.571533,751.757324 462.014313,751.813843 462.457062,751.870300 &#xA;&#x9;C464.067413,758.878479 465.721893,765.876892 467.262573,772.900330 &#xA;&#x9;C467.758728,775.161926 468.123016,777.479187 468.261902,779.788208 &#xA;&#x9;C469.375671,798.305542 461.229706,808.356323 442.309570,811.468262 &#xA;z" fill="none" stroke="#FFFFFF" stroke-width="24" stroke-linejoin="round" stroke-linecap="round"></path>
  <path class="cpath-0" d="&#xA;M497.263245,645.017456 &#xA;&#x9;C493.312744,665.212708 482.775238,682.173523 474.108063,699.933533 &#xA;&#x9;C468.982422,710.436584 464.601379,721.216553 463.150726,732.942749 &#xA;&#x9;C462.655518,736.945740 460.091064,737.416870 456.730316,737.327881 &#xA;&#x9;C431.268280,736.653137 405.788177,735.286438 380.346710,735.792969 &#xA;&#x9;C367.686249,736.045044 358.126617,731.763428 348.698273,724.332275 &#xA;&#x9;C338.378906,716.198975 327.503998,708.747559 316.630157,701.353455 &#xA;&#x9;C312.923706,698.833130 311.254517,695.812744 310.956177,691.565491 &#xA;&#x9;C309.919006,676.799622 308.825623,662.037537 307.701691,647.277954 &#xA;&#x9;C306.818237,635.676147 305.970245,624.069580 304.885071,612.485901 &#xA;&#x9;C304.336090,606.625977 305.055542,601.879517 309.649597,597.182495 &#xA;&#x9;C326.178314,580.283142 342.171692,562.858887 358.280975,545.552551 &#xA;&#x9;C360.084717,543.614746 361.760071,542.934937 364.384094,543.556274 &#xA;&#x9;C388.654480,549.303101 413.005554,554.722534 437.192963,560.795593 &#xA;&#x9;C442.354980,562.091614 446.933289,565.681763 451.806641,568.163635 &#xA;&#x9;C468.272797,576.549500 484.710632,584.993042 501.264130,593.203186 &#xA;&#x9;C503.962067,594.541199 504.403442,596.255249 504.105225,598.761536 &#xA;&#x9;C502.279388,614.106934 500.882507,629.515442 497.263245,645.017456 &#xA;z" fill="#3F4A6E" stroke="#FFFFFF" stroke-width="5" stroke-linejoin="round"></path>
  <path class="cpath-1" d="&#xA;M328.762482,286.635284 &#xA;&#x9;C346.792511,284.706146 364.387726,284.526337 382.043427,285.390289 &#xA;&#x9;C399.563934,286.247589 416.832977,288.351440 433.549255,293.850220 &#xA;&#x9;C437.964508,295.302612 442.658478,296.621216 446.422546,299.180603 &#xA;&#x9;C452.843018,303.546265 459.239868,303.192657 466.246643,301.598175 &#xA;&#x9;C477.591125,299.016632 477.608429,299.207550 480.553101,310.492523 &#xA;&#x9;C487.307800,336.378387 494.033112,362.272247 500.925964,388.121338 &#xA;&#x9;C501.850586,391.588867 501.477112,393.926636 498.615051,396.387146 &#xA;&#x9;C479.553925,412.773926 460.615387,429.303741 441.696106,445.854614 &#xA;&#x9;C439.141235,448.089630 436.165192,448.891815 433.005188,449.148285 &#xA;&#x9;C410.963104,450.937225 388.846710,452.077271 366.904114,454.686462 &#xA;&#x9;C358.831116,455.646423 354.441254,452.819733 349.599670,447.404877 &#xA;&#x9;C334.284241,430.276215 318.600952,413.475037 302.949432,396.649933 &#xA;&#x9;C300.623016,394.149048 299.610870,391.605713 299.673706,388.185608 &#xA;&#x9;C300.193909,359.885040 300.160461,331.567200 301.163055,303.285431 &#xA;&#x9;C301.685303,288.553680 299.083771,291.851929 313.509460,288.715759 &#xA;&#x9;C318.361725,287.660889 323.369446,287.320953 328.762482,286.635284 &#xA;z" fill="#3F4A6E" stroke="#FFFFFF" stroke-width="5" stroke-linejoin="round"></path>
  <path class="cpath-2" d="&#xA;M221.084381,445.124512 &#xA;&#x9;C224.697250,439.692566 228.298325,434.671844 231.450684,429.383636 &#xA;&#x9;C233.956161,425.180634 237.304153,422.464813 241.781219,420.500519 &#xA;&#x9;C258.097809,413.341797 274.334381,405.994476 290.486725,398.472565 &#xA;&#x9;C293.907867,396.879425 296.136475,397.049957 298.706421,399.908203 &#xA;&#x9;C316.079926,419.230438 333.573364,438.444824 351.041687,457.681732 &#xA;&#x9;C352.900818,459.729095 354.021851,462.026001 354.178223,464.834229 &#xA;&#x9;C355.195496,483.102936 356.254761,501.369263 357.291687,519.636841 &#xA;&#x9;C357.367188,520.967041 357.079163,522.393372 357.461517,523.618530 &#xA;&#x9;C360.309998,532.744934 355.919464,538.812744 349.743958,544.965759 &#xA;&#x9;C333.343109,561.306702 317.379059,578.088074 301.360413,594.808350 &#xA;&#x9;C298.926178,597.349182 296.668274,598.065613 293.065765,597.634277 &#xA;&#x9;C270.942474,594.985718 248.781769,592.636841 226.611481,590.407227 &#xA;&#x9;C223.191254,590.063293 221.243134,588.912964 221.041000,585.492737 &#xA;&#x9;C220.446472,575.432800 216.035553,566.580750 212.227737,557.554443 &#xA;&#x9;C205.371613,541.302063 203.086487,524.328064 203.489548,506.807556 &#xA;&#x9;C203.757751,495.148926 204.563705,483.545624 205.570053,471.937378 &#xA;&#x9;C205.812790,469.137177 206.613754,466.803192 208.130508,464.548798 &#xA;&#x9;C212.407761,458.191315 216.633148,451.798950 221.084381,445.124512 &#xA;z" fill="#7A6A8E" stroke="#FFFFFF" stroke-width="5" stroke-linejoin="round"></path>
  <path class="cpath-3" d="&#xA;M173.717957,480.877869 &#xA;&#x9;C150.184967,491.300354 126.990860,489.451599 103.870117,480.876984 &#xA;&#x9;C92.387756,476.618591 82.028137,470.270752 72.163063,463.074493 &#xA;&#x9;C68.531944,460.425720 66.938705,456.959351 66.634872,452.456116 &#xA;&#x9;C64.820915,425.570801 62.813938,398.698578 60.920940,371.818481 &#xA;&#x9;C60.395020,364.350525 60.173023,356.859131 59.536072,349.402008 &#xA;&#x9;C59.265556,346.234955 60.471046,344.939209 63.387501,344.209686 &#xA;&#x9;C93.713928,336.623962 123.324593,336.862152 151.831451,351.560699 &#xA;&#x9;C163.259064,357.452972 174.418198,363.795044 184.723572,371.439056 &#xA;&#x9;C191.890671,376.755188 198.677094,376.785553 206.021744,372.403290 &#xA;&#x9;C211.070023,369.391174 215.459259,365.581268 219.705994,361.573486 &#xA;&#x9;C220.892700,360.453552 222.099182,359.354584 223.199005,358.336365 &#xA;&#x9;C225.389969,359.148499 225.080124,360.829895 225.187576,362.230865 &#xA;&#x9;C226.548111,379.969604 227.827042,397.714752 229.244980,415.448822 &#xA;&#x9;C229.552307,419.292633 228.733429,422.490845 226.347275,425.644562 &#xA;&#x9;C218.006790,436.667755 210.113113,448.032593 201.653671,458.961090 &#xA;&#x9;C194.314850,468.442017 184.635559,475.208862 173.717957,480.877869 &#xA;z" fill="#3F4A6E" stroke="#FFFFFF" stroke-width="5" stroke-linejoin="round"></path>
  <path class="cpath-4" d="&#xA;M523.138306,506.096283 &#xA;&#x9;C523.232666,525.245972 520.574585,543.361328 512.846069,560.565735 &#xA;&#x9;C509.373291,568.296387 506.074432,576.118469 505.208710,584.736450 &#xA;&#x9;C504.786224,588.942383 501.985321,587.623901 499.677765,586.464172 &#xA;&#x9;C488.816132,581.005249 477.978973,575.497375 467.146362,569.980835 &#xA;&#x9;C461.507080,567.109070 455.965363,564.034546 450.244171,561.338928 &#xA;&#x9;C446.959015,559.791077 445.656616,557.688171 445.627380,553.992981 &#xA;&#x9;C445.420776,527.846008 445.044556,501.700073 444.643555,475.555054 &#xA;&#x9;C444.544037,469.065002 444.223053,462.575684 443.868103,456.093475 &#xA;&#x9;C443.709076,453.189117 444.648529,451.068695 446.896545,449.150177 &#xA;&#x9;C465.518738,433.257507 484.107178,417.324493 502.592987,401.273712 &#xA;&#x9;C505.439911,398.801758 508.157593,398.443176 511.724518,399.187225 &#xA;&#x9;C530.605164,403.125671 549.476257,407.168610 568.477600,410.438110 &#xA;&#x9;C575.169617,411.589569 579.502563,415.574524 584.101379,419.514771 &#xA;&#x9;C602.441040,435.228180 620.662415,451.079712 638.910339,466.899963 &#xA;&#x9;C640.015564,467.858124 641.402161,468.637695 641.751770,470.519806 &#xA;&#x9;C641.440918,470.904266 641.140625,471.569031 640.627258,471.868347 &#xA;&#x9;C614.782593,486.938843 587.687988,493.151093 558.391174,483.270874 &#xA;&#x9;C549.410583,480.242218 541.755981,474.958954 534.589905,468.894379 &#xA;&#x9;C533.572876,468.033691 532.600098,467.094696 531.486328,466.379517 &#xA;&#x9;C528.842957,464.682068 526.060425,462.452332 522.804565,464.217987 &#xA;&#x9;C519.253479,466.143738 520.596741,469.628723 520.835999,472.753784 &#xA;&#x9;C521.674255,483.701233 522.376892,494.659027 523.138306,506.096283 &#xA;z" fill="#8A8A8A" stroke="#FFFFFF" stroke-width="5" stroke-linejoin="round"></path>
  <path class="cpath-5" d="&#xA;M378.198853,827.028198 &#xA;&#x9;C378.852203,830.342590 379.435699,833.244019 380.038940,836.243652 &#xA;&#x9;C379.131134,836.672913 378.558472,837.179565 377.985168,837.180359 &#xA;&#x9;C364.507782,837.198059 350.986176,838.365540 337.582642,836.146118 &#xA;&#x9;C327.227448,834.431335 317.910065,829.919373 311.207764,822.009521 &#xA;&#x9;C305.231812,814.956909 298.169525,812.571045 289.524048,812.292542 &#xA;&#x9;C284.368286,812.126404 279.293762,810.899963 274.483063,808.934021 &#xA;&#x9;C262.157257,803.897034 256.343353,792.834839 258.030426,779.655579 &#xA;&#x9;C259.631775,767.146423 264.201752,755.207275 263.947723,742.299927 &#xA;&#x9;C263.678101,728.597900 259.771118,716.052612 254.140259,703.909180 &#xA;&#x9;C249.939301,694.849365 245.113602,686.080261 240.617691,677.155701 &#xA;&#x9;C239.459564,674.856689 237.743698,672.724731 237.795807,669.588074 &#xA;&#x9;C241.546402,669.657959 244.235382,671.822388 247.098846,673.217712 &#xA;&#x9;C264.468658,681.681580 281.707764,690.413574 299.075836,698.881104 &#xA;&#x9;C311.941956,705.153931 322.330627,714.960388 333.995361,722.942139 &#xA;&#x9;C341.004303,727.738037 347.597748,733.142334 354.619293,737.918335 &#xA;&#x9;C358.116791,740.297180 359.510010,743.387756 360.370941,747.289551 &#xA;&#x9;C366.209290,773.749268 372.192596,800.177063 378.198853,827.028198 &#xA;z" fill="#C68A2E" stroke="#FFFFFF" stroke-width="5" stroke-linejoin="round"></path>
  <path class="cpath-6" d="&#xA;M702.494995,405.280304 &#xA;&#x9;C696.888550,423.559875 684.883423,436.853760 671.416199,448.999847 &#xA;&#x9;C665.493591,454.341339 658.973999,459.015869 652.835876,464.125763 &#xA;&#x9;C650.395142,466.157654 648.477356,466.351288 645.897644,464.179749 &#xA;&#x9;C624.369812,446.058319 602.744934,428.052155 581.160950,409.997406 &#xA;&#x9;C579.331299,408.466949 577.848633,406.741638 578.079529,404.069214 &#xA;&#x9;C579.313965,389.780548 578.111389,375.429474 579.063965,361.142639 &#xA;&#x9;C580.018311,346.828827 577.140808,349.377808 591.296692,344.672455 &#xA;&#x9;C621.109802,334.762817 650.576355,337.977753 678.934143,350.071503 &#xA;&#x9;C702.460938,360.104980 709.706482,378.312927 702.494995,405.280304 &#xA;z" fill="#7A6A8E" stroke="#FFFFFF" stroke-width="5" stroke-linejoin="round"></path>
  <path class="cpath-7" d="&#xA;M420.129028,551.126892 &#xA;&#x9;C403.058319,547.115540 386.418121,543.079529 369.705750,539.368530 &#xA;&#x9;C365.459198,538.425476 363.716095,536.784180 363.540222,532.150146 &#xA;&#x9;C362.707550,510.210419 360.397614,488.341187 360.557922,466.342133 &#xA;&#x9;C360.588470,462.152679 361.767242,460.292847 365.978058,459.973267 &#xA;&#x9;C388.365845,458.274231 410.745880,456.471100 433.123199,454.638367 &#xA;&#x9;C436.471863,454.364105 438.304382,454.905029 438.375336,459.016510 &#xA;&#x9;C438.892181,488.980164 439.644165,518.939697 440.278015,548.901489 &#xA;&#x9;C440.319275,550.852051 440.730988,552.914551 439.234070,555.114746 &#xA;&#x9;C432.964020,554.621887 426.858734,552.323425 420.129028,551.126892 &#xA;z" fill="#C68A2E" stroke="#FFFFFF" stroke-width="5" stroke-linejoin="round"></path>
  <path class="cpath-8" d="&#xA;M228.714752,315.016968 &#xA;&#x9;C228.599518,307.794586 226.809433,301.085205 227.975220,293.861664 &#xA;&#x9;C236.556076,295.947235 244.985306,297.699310 253.234787,300.075409 &#xA;&#x9;C263.741638,303.101654 273.820435,304.498474 283.486359,297.440399 &#xA;&#x9;C285.929779,295.656189 289.129364,294.624817 292.352386,294.390076 &#xA;&#x9;C294.311096,295.867554 293.929474,298.006653 293.940094,299.920288 &#xA;&#x9;C294.096527,328.054474 294.188324,356.189026 294.341156,384.323242 &#xA;&#x9;C294.354797,386.832794 293.925659,388.789551 291.332977,389.990631 &#xA;&#x9;C274.120972,397.964203 256.953583,406.034180 239.756668,414.040497 &#xA;&#x9;C239.034302,414.376770 238.163040,414.393188 236.388733,414.759247 &#xA;&#x9;C233.821915,381.495880 231.274887,348.488831 228.714752,315.016968 &#xA;z" fill="#8A8A8A" stroke="#FFFFFF" stroke-width="5" stroke-linejoin="round"></path>
  <path class="cpath-9" d="&#xA;M262.296509,674.747314 &#xA;&#x9;C253.756119,670.516113 245.587738,666.369263 237.308868,662.456116 &#xA;&#x9;C234.497589,661.127319 232.894806,659.197632 232.060928,656.274292 &#xA;&#x9;C226.839249,637.968262 224.319946,619.219299 222.541214,600.323730 &#xA;&#x9;C222.157852,596.251221 223.763000,595.338928 227.315216,595.746460 &#xA;&#x9;C246.307327,597.925659 265.305328,600.053589 284.301239,602.199951 &#xA;&#x9;C287.934753,602.610474 291.561737,603.094666 295.203186,603.414185 &#xA;&#x9;C298.098419,603.668274 299.113800,605.253235 299.308441,608.002808 &#xA;&#x9;C300.940674,631.058350 302.579041,654.114014 304.388184,677.156128 &#xA;&#x9;C304.850769,683.047913 305.784882,688.895569 305.108337,695.859253 &#xA;&#x9;C290.537628,688.678650 276.581451,681.800903 262.296509,674.747314 &#xA;z" fill="#1A1A1A" stroke="#FFFFFF" stroke-width="5" stroke-linejoin="round"></path>
  <path class="cpath-10" d="&#xA;M371.990845,774.776062 &#xA;&#x9;C369.511078,763.549194 367.141113,752.727478 364.512482,740.724487 &#xA;&#x9;C395.974609,741.477661 426.559631,742.209778 456.942108,742.937073 &#xA;&#x9;C457.808197,745.626404 456.512665,747.158813 455.780640,748.757263 &#xA;&#x9;C446.567383,768.875488 437.229340,788.936829 428.095734,809.090881 &#xA;&#x9;C426.113251,813.465332 421.913666,815.431091 418.880676,818.636658 &#xA;&#x9;C411.363831,826.581177 402.685150,832.830444 391.730438,835.553223 &#xA;&#x9;C387.266235,836.662781 385.486603,835.701416 384.518921,831.135132 &#xA;&#x9;C380.558289,812.445923 376.268982,793.826416 371.990845,774.776062 &#xA;z" fill="#1A1A1A" stroke="#FFFFFF" stroke-width="5" stroke-linejoin="round"></path>
  <path class="cpath-11" d="&#xA;M160.556396,310.451965 &#xA;&#x9;C154.873550,305.106415 149.538132,299.922424 145.097015,294.051056 &#xA;&#x9;C146.274429,291.801514 148.109268,292.077057 149.652222,291.988037 &#xA;&#x9;C169.225311,290.858887 188.801010,289.773895 208.378723,288.727844 &#xA;&#x9;C210.687195,288.604492 212.980499,288.645294 215.290268,289.321533 &#xA;&#x9;C218.423111,290.238708 219.971924,292.037018 220.205734,295.325653 &#xA;&#x9;C221.430069,312.547974 222.751328,329.763336 224.028534,346.981903 &#xA;&#x9;C224.101532,347.966156 224.132812,348.970612 222.692917,350.384033 &#xA;&#x9;C200.394272,340.038574 179.382248,327.323120 160.556396,310.451965 &#xA;z" fill="#3F4A6E" stroke="#FFFFFF" stroke-width="5" stroke-linejoin="round"></path>
  <path class="cpath-12" d="&#xA;M510.292175,298.620148 &#xA;&#x9;C531.409302,299.321960 552.061462,299.878723 572.855530,302.475708 &#xA;&#x9;C552.085876,324.787079 526.792542,339.784790 498.864471,352.790253 &#xA;&#x9;C494.145172,334.192322 489.613770,316.334778 484.940308,297.917358 &#xA;&#x9;C493.978821,297.414459 501.902924,297.738586 510.292175,298.620148 &#xA;z" fill="#C68A2E" stroke="#FFFFFF" stroke-width="5" stroke-linejoin="round"></path>
  <path class="cpath-13" d="&#xA;M57.266953,396.020325 &#xA;&#x9;C58.584190,415.036499 59.890511,433.584595 61.173546,451.802002 &#xA;&#x9;C59.971581,452.850311 59.158974,452.517151 58.539200,451.981995 &#xA;&#x9;C44.159222,439.565460 31.178732,426.080383 24.644287,407.652435 &#xA;&#x9;C21.338842,398.330688 20.660984,388.630859 22.026632,379.051819 &#xA;&#x9;C23.598219,368.028229 30.352200,359.986969 39.707542,354.197876 &#xA;&#x9;C43.784363,351.675110 47.917049,349.163116 53.725700,347.846832 &#xA;&#x9;C54.918236,363.961548 56.087132,379.756897 57.266953,396.020325 &#xA;z" fill="#C68A2E" stroke="#FFFFFF" stroke-width="5" stroke-linejoin="round"></path>
  <path class="cpath-14" d="&#xA;M596.771973,268.559082 &#xA;&#x9;C592.937378,277.720398 588.006287,285.771881 582.087646,293.251556 &#xA;&#x9;C580.655945,295.060913 579.165161,296.306976 576.698730,296.189850 &#xA;&#x9;C553.788269,295.101898 530.875671,294.059235 507.965027,292.975861 &#xA;&#x9;C507.360626,292.947266 506.771057,292.606201 506.000946,292.353973 &#xA;&#x9;C506.407440,290.227692 508.221161,290.305237 509.419434,289.890045 &#xA;&#x9;C535.185059,280.962616 558.815247,268.472931 578.367737,249.045883 &#xA;&#x9;C580.850647,246.578857 583.879211,244.765991 587.129944,243.390045 &#xA;&#x9;C590.618347,241.913544 594.280090,240.856277 597.544800,243.447495 &#xA;&#x9;C600.992249,246.183701 601.516785,250.253052 600.946594,254.350937 &#xA;&#x9;C600.279907,259.142822 598.654419,263.699554 596.771973,268.559082 &#xA;z" fill="#1A1A1A" stroke="#FFFFFF" stroke-width="5" stroke-linejoin="round"></path>
  <path class="cpath-15" d="&#xA;M572.982666,400.665833 &#xA;&#x9;C572.928955,404.705109 571.375427,405.568054 567.846558,404.731323 &#xA;&#x9;C549.592102,400.402893 531.288879,396.279816 512.995056,392.118439 &#xA;&#x9;C509.990814,391.434998 508.243225,390.063812 507.492096,386.695770 &#xA;&#x9;C505.468903,377.623657 502.892822,368.675629 500.615387,359.658386 &#xA;&#x9;C500.321442,358.494598 499.227814,357.244080 500.501312,355.940948 &#xA;&#x9;C502.492493,356.030792 503.071564,357.887329 504.186432,358.997803 &#xA;&#x9;C508.790985,363.584473 513.505127,368.014832 518.992310,371.567108 &#xA;&#x9;C527.569031,377.119354 532.958923,377.049561 541.418030,371.248169 &#xA;&#x9;C550.064087,365.318573 558.850342,359.609253 568.171753,354.776062 &#xA;&#x9;C569.610962,354.029785 570.939026,352.878784 573.006042,353.244171 &#xA;&#x9;C573.006042,368.885101 573.006042,384.546783 572.982666,400.665833 &#xA;z" fill="#C68A2E" stroke="#FFFFFF" stroke-width="5" stroke-linejoin="round"></path>
  <path class="cpath-16" d="&#xA;M137.507324,283.604248 &#xA;&#x9;C131.748734,274.140381 126.712425,264.743317 125.618896,253.890686 &#xA;&#x9;C124.564713,243.428574 130.582779,239.357895 140.134979,243.844437 &#xA;&#x9;C143.312958,245.337097 146.188370,247.345505 148.683548,249.825729 &#xA;&#x9;C161.696777,262.761078 176.885239,272.493317 193.369873,280.347778 &#xA;&#x9;C194.750763,281.005737 196.691437,281.079254 197.275345,283.804382 &#xA;&#x9;C190.800140,284.279907 184.463821,284.811615 178.118607,285.196564 &#xA;&#x9;C166.842331,285.880646 155.556259,286.408966 144.284241,287.153290 &#xA;&#x9;C141.322510,287.348846 139.021637,286.806763 137.507324,283.604248 &#xA;z" fill="#7A6A8E" stroke="#FFFFFF" stroke-width="5" stroke-linejoin="round"></path>
  <path class="cpath-17" d="&#xA;M442.309570,811.468262 &#xA;&#x9;C439.167145,812.251099 436.434601,812.854431 432.805542,811.777161 &#xA;&#x9;C442.316559,791.603394 451.722656,771.652100 461.128754,751.700806 &#xA;&#x9;C461.571533,751.757324 462.014313,751.813843 462.457062,751.870300 &#xA;&#x9;C464.067413,758.878479 465.721893,765.876892 467.262573,772.900330 &#xA;&#x9;C467.758728,775.161926 468.123016,777.479187 468.261902,779.788208 &#xA;&#x9;C469.375671,798.305542 461.229706,808.356323 442.309570,811.468262 &#xA;z" fill="#7A6A8E" stroke="#FFFFFF" stroke-width="5" stroke-linejoin="round"></path>
</svg>